<svg width="148" height="40" viewBox="0 0 148 40" fill="none" xmlns="http://www.w3.org/2000/svg">
<path d="M5.664 28.9422C3.664 28.9422 2.112 28.1182 1.008 26.4702V25.1742C1.44 26.1342 2.064 26.8862 2.88 27.4302C3.712 27.9742 4.704 28.2462 5.856 28.2462C6.656 28.2462 7.392 28.0702 8.064 27.7182C8.752 27.3662 9.296 26.8702 9.696 26.2302C10.096 25.5902 10.296 24.8542 10.296 24.0222C10.296 23.2702 10.168 22.6222 9.912 22.0782C9.656 21.5342 9.232 21.0142 8.64 20.5182C8.048 20.0062 7.192 19.4062 6.072 18.7182L5.304 18.2382C4.6 17.8062 4.032 17.4222 3.6 17.0862C3.168 16.7502 2.792 16.3582 2.472 15.9102C2.056 15.2862 1.848 14.5662 1.848 13.7502C1.848 12.6622 2.2 11.8142 2.904 11.2062C3.608 10.5982 4.504 10.2942 5.592 10.2942C7.064 10.2942 8.232 10.8382 9.096 11.9262V13.1502C8.728 12.4782 8.224 11.9502 7.584 11.5662C6.944 11.1822 6.24 10.9902 5.472 10.9902C4.672 10.9902 4 11.2382 3.456 11.7342C2.912 12.2302 2.64 12.8942 2.64 13.7262C2.64 14.5422 2.888 15.2462 3.384 15.8382C3.896 16.4142 4.752 17.0462 5.952 17.7342C7.424 18.5982 8.568 19.3822 9.384 20.0862C9.96 20.6142 10.376 21.1982 10.632 21.8382C10.904 22.4782 11.04 23.1902 11.04 23.9742C11.04 24.9662 10.808 25.8382 10.344 26.5902C9.88 27.3422 9.24 27.9262 8.424 28.3422C7.608 28.7422 6.688 28.9422 5.664 28.9422ZM13.5589 17.8062H14.3269V20.4462C14.7589 19.5822 15.4309 18.8862 16.3429 18.3582C17.2549 17.8142 18.2149 17.5422 19.2229 17.5422C20.2629 17.5422 21.2149 17.7982 22.0789 18.3102C22.9589 18.8222 23.6549 19.5102 24.1669 20.3742C24.6789 21.2382 24.9349 22.1822 24.9349 23.2062C24.9349 24.2302 24.6789 25.1742 24.1669 26.0382C23.6549 26.9022 22.9589 27.5902 22.0789 28.1022C21.2149 28.6142 20.2629 28.8702 19.2229 28.8702C18.2469 28.8702 17.3029 28.6062 16.3909 28.0782C15.4949 27.5502 14.8069 26.8542 14.3269 25.9902V33.4062H13.5589V17.8062ZM19.2709 28.1982C20.1509 28.1982 20.9669 27.9742 21.7189 27.5262C22.4709 27.0622 23.0629 26.4542 23.4949 25.7022C23.9429 24.9342 24.1669 24.1022 24.1669 23.2062C24.1669 22.3262 23.9429 21.5022 23.4949 20.7342C23.0469 19.9662 22.4469 19.3582 21.6949 18.9102C20.9429 18.4462 20.1269 18.2142 19.2469 18.2142C18.3669 18.2142 17.5429 18.4462 16.7749 18.9102C16.0229 19.3742 15.4149 19.9902 14.9509 20.7582C14.5029 21.5262 14.2789 22.3502 14.2789 23.2302C14.2789 24.1102 14.5029 24.9342 14.9509 25.7022C15.4149 26.4542 16.0309 27.0622 16.7989 27.5262C17.5669 27.9742 18.3909 28.1982 19.2709 28.1982ZM32.4281 28.8702C31.4041 28.8702 30.4521 28.6142 29.5721 28.1022C28.6921 27.5902 27.9961 26.9022 27.4841 26.0382C26.9721 25.1582 26.7161 24.2142 26.7161 23.2062C26.7161 22.1982 26.9721 21.2622 27.4841 20.3982C27.9961 19.5182 28.6921 18.8222 29.5721 18.3102C30.4521 17.7982 31.4041 17.5422 32.4281 17.5422C33.4681 17.5422 34.4521 17.8222 35.3801 18.3822C36.3081 18.9262 36.9561 19.6382 37.3241 20.5182V17.8062H38.0921V28.6062H37.3241V25.9182C36.8921 26.8142 36.2201 27.5342 35.3081 28.0782C34.4121 28.6062 33.4521 28.8702 32.4281 28.8702ZM32.4761 28.1982C33.3561 28.1982 34.1721 27.9742 34.9241 27.5262C35.6761 27.0622 36.2681 26.4542 36.7001 25.7022C37.1481 24.9342 37.3721 24.1022 37.3721 23.2062C37.3721 22.3262 37.1481 21.5022 36.7001 20.7342C36.2521 19.9662 35.6521 19.3582 34.9001 18.9102C34.1481 18.4462 33.3321 18.2142 32.4521 18.2142C31.5721 18.2142 30.7481 18.4462 29.9801 18.9102C29.2281 19.3742 28.6201 19.9902 28.1561 20.7582C27.7081 21.5262 27.4841 22.3502 27.4841 23.2302C27.4841 24.1102 27.7081 24.9342 28.1561 25.7022C28.6201 26.4542 29.2361 27.0622 30.0041 27.5262C30.7721 27.9742 31.5961 28.1982 32.4761 28.1982ZM44.9854 28.7502C43.8014 28.7502 42.8174 28.3902 42.0334 27.6702C41.2654 26.9502 40.8814 25.9582 40.8814 24.6942V13.4622H41.6494V17.8062H44.9614V18.4782H41.6494V24.6942C41.6494 25.7502 41.9614 26.5822 42.5854 27.1902C43.2254 27.7822 44.0254 28.0782 44.9854 28.0782V28.7502ZM47.9402 15.3342C47.7162 15.3342 47.5162 15.2542 47.3402 15.0942C47.1802 14.9342 47.1002 14.7342 47.1002 14.4942C47.1002 14.2702 47.1802 14.0782 47.3402 13.9182C47.5162 13.7582 47.7162 13.6782 47.9402 13.6782C48.1642 13.6782 48.3562 13.7582 48.5162 13.9182C48.6922 14.0782 48.7802 14.2702 48.7802 14.4942C48.7802 14.7342 48.6922 14.9342 48.5162 15.0942C48.3562 15.2542 48.1642 15.3342 47.9402 15.3342ZM47.5562 17.8062H48.3242V28.6062H47.5562V17.8062ZM56.9906 28.8702C55.9666 28.8702 55.0146 28.6142 54.1346 28.1022C53.2546 27.5902 52.5586 26.9022 52.0466 26.0382C51.5346 25.1582 51.2786 24.2142 51.2786 23.2062C51.2786 22.1982 51.5346 21.2622 52.0466 20.3982C52.5586 19.5182 53.2546 18.8222 54.1346 18.3102C55.0146 17.7982 55.9666 17.5422 56.9906 17.5422C58.0306 17.5422 59.0146 17.8222 59.9426 18.3822C60.8706 18.9262 61.5186 19.6382 61.8866 20.5182V17.8062H62.6546V28.6062H61.8866V25.9182C61.4546 26.8142 60.7826 27.5342 59.8706 28.0782C58.9746 28.6062 58.0146 28.8702 56.9906 28.8702ZM57.0386 28.1982C57.9186 28.1982 58.7346 27.9742 59.4866 27.5262C60.2386 27.0622 60.8306 26.4542 61.2626 25.7022C61.7106 24.9342 61.9346 24.1022 61.9346 23.2062C61.9346 22.3262 61.7106 21.5022 61.2626 20.7342C60.8146 19.9662 60.2146 19.3582 59.4626 18.9102C58.7106 18.4462 57.8946 18.2142 57.0146 18.2142C56.1346 18.2142 55.3106 18.4462 54.5426 18.9102C53.7906 19.3742 53.1826 19.9902 52.7186 20.7582C52.2706 21.5262 52.0466 22.3502 52.0466 23.2302C52.0466 24.1102 52.2706 24.9342 52.7186 25.7022C53.1826 26.4542 53.7986 27.0622 54.5666 27.5262C55.3346 27.9742 56.1586 28.1982 57.0386 28.1982ZM69.7879 28.8222C69.0359 28.8222 68.3479 28.6542 67.7239 28.3182C67.0999 27.9662 66.6039 27.4782 66.2359 26.8542C65.8679 26.2302 65.6839 25.5342 65.6839 24.7662V10.6062H66.4519V24.7662C66.4519 25.4062 66.5959 25.9822 66.8839 26.4942C67.1879 27.0062 67.5959 27.4142 68.1079 27.7182C68.6199 28.0062 69.1799 28.1502 69.7879 28.1502V28.8222ZM76.4218 28.9422C74.4218 28.9422 72.8698 28.1182 71.7658 26.4702V25.1742C72.1978 26.1342 72.8218 26.8862 73.6378 27.4302C74.4698 27.9742 75.4618 28.2462 76.6138 28.2462C77.4138 28.2462 78.1498 28.0702 78.8218 27.7182C79.5098 27.3662 80.0538 26.8702 80.4538 26.2302C80.8538 25.5902 81.0538 24.8542 81.0538 24.0222C81.0538 23.2702 80.9258 22.6222 80.6698 22.0782C80.4138 21.5342 79.9898 21.0142 79.3978 20.5182C78.8058 20.0062 77.9498 19.4062 76.8298 18.7182L76.0618 18.2382C75.3578 17.8062 74.7898 17.4222 74.3578 17.0862C73.9258 16.7502 73.5498 16.3582 73.2298 15.9102C72.8138 15.2862 72.6058 14.5662 72.6058 13.7502C72.6058 12.6622 72.9578 11.8142 73.6618 11.2062C74.3658 10.5982 75.2618 10.2942 76.3498 10.2942C77.8218 10.2942 78.9898 10.8382 79.8538 11.9262V13.1502C79.4858 12.4782 78.9818 11.9502 78.3418 11.5662C77.7018 11.1822 76.9978 10.9902 76.2298 10.9902C75.4298 10.9902 74.7578 11.2382 74.2138 11.7342C73.6698 12.2302 73.3978 12.8942 73.3978 13.7262C73.3978 14.5422 73.6458 15.2462 74.1418 15.8382C74.6538 16.4142 75.5098 17.0462 76.7098 17.7342C78.1818 18.5982 79.3258 19.3822 80.1418 20.0862C80.7178 20.6142 81.1338 21.1982 81.3898 21.8382C81.6618 22.4782 81.7978 23.1902 81.7978 23.9742C81.7978 24.9662 81.5658 25.8382 81.1018 26.5902C80.6378 27.3422 79.9978 27.9262 79.1818 28.3422C78.3658 28.7422 77.4458 28.9422 76.4218 28.9422ZM89.5727 28.2222C90.4047 28.2222 91.1967 28.0062 91.9487 27.5742C92.7007 27.1422 93.3247 26.5502 93.8207 25.7982V27.0222C93.2287 27.6782 92.5807 28.1582 91.8767 28.4622C91.1727 28.7502 90.3727 28.8942 89.4767 28.8942C88.4847 28.8942 87.5487 28.6302 86.6687 28.1022C85.8047 27.5742 85.1087 26.8702 84.5807 25.9902C84.0687 25.1102 83.8127 24.1742 83.8127 23.1822C83.8127 22.1102 84.0687 21.1502 84.5807 20.3022C85.0927 19.4382 85.7887 18.7662 86.6687 18.2862C87.5647 17.8062 88.5567 17.5662 89.6447 17.5662C91.3087 17.5662 92.7247 18.2222 93.8927 19.5342L86.3567 26.9742C86.8847 27.4062 87.3967 27.7262 87.8927 27.9342C88.3887 28.1262 88.9487 28.2222 89.5727 28.2222ZM84.5807 23.1102C84.5807 24.4382 85.0207 25.5742 85.9007 26.5182L92.9327 19.5342C92.4047 19.0702 91.8927 18.7422 91.3967 18.5502C90.9007 18.3422 90.3087 18.2382 89.6207 18.2382C88.6447 18.2382 87.7727 18.4542 87.0047 18.8862C86.2527 19.3022 85.6607 19.8782 85.2287 20.6142C84.7967 21.3502 84.5807 22.1822 84.5807 23.1102ZM96.2933 17.8062H97.0613V20.2062C97.4133 19.4062 98.0133 18.7662 98.8613 18.2862C99.7093 17.7902 100.645 17.5422 101.669 17.5422C102.997 17.5422 104.045 17.9662 104.813 18.8142C105.597 19.6462 105.989 20.8142 105.989 22.3182V28.6062H105.221V22.3182C105.221 21.0222 104.901 20.0142 104.261 19.2942C103.637 18.5742 102.757 18.2142 101.621 18.2142C100.789 18.2142 100.021 18.4062 99.3173 18.7902C98.6293 19.1582 98.0773 19.6702 97.6613 20.3262C97.2613 20.9822 97.0613 21.7262 97.0613 22.5582V28.6062H96.2933V17.8062ZM111.636 28.8702C110.868 28.8702 110.188 28.7422 109.596 28.4862C109.004 28.2142 108.58 27.8702 108.324 27.4542V26.1822C108.628 26.8702 109.044 27.3822 109.572 27.7182C110.1 28.0382 110.772 28.1982 111.588 28.1982C112.372 28.1982 113.004 27.9582 113.484 27.4782C113.964 26.9822 114.204 26.3502 114.204 25.5822C114.204 24.9262 114.068 24.4222 113.796 24.0702C113.524 23.7022 113.084 23.3342 112.476 22.9662L111.564 22.4382C110.908 22.0382 110.412 21.7262 110.076 21.5022C109.756 21.2622 109.5 20.9982 109.308 20.7102C109.116 20.4062 109.02 20.0542 109.02 19.6542C109.02 19.0142 109.244 18.5022 109.692 18.1182C110.14 17.7342 110.724 17.5422 111.444 17.5422C112.324 17.5422 113.06 17.7422 113.652 18.1422V19.1982C113.156 18.5422 112.444 18.2142 111.516 18.2142C111.004 18.2142 110.588 18.3422 110.268 18.5982C109.948 18.8542 109.788 19.1822 109.788 19.5822C109.788 19.9342 109.884 20.2462 110.076 20.5182C110.268 20.7742 110.532 21.0142 110.868 21.2382C111.22 21.4622 111.796 21.7982 112.596 22.2462C113.412 22.7102 114.012 23.1902 114.396 23.6862C114.78 24.1662 114.972 24.7982 114.972 25.5822C114.972 26.5742 114.644 27.3742 113.988 27.9822C113.348 28.5742 112.564 28.8702 111.636 28.8702ZM122.62 28.2222C123.452 28.2222 124.244 28.0062 124.996 27.5742C125.748 27.1422 126.372 26.5502 126.868 25.7982V27.0222C126.276 27.6782 125.628 28.1582 124.924 28.4622C124.22 28.7502 123.42 28.8942 122.524 28.8942C121.532 28.8942 120.596 28.6302 119.716 28.1022C118.852 27.5742 118.156 26.8702 117.628 25.9902C117.116 25.1102 116.86 24.1742 116.86 23.1822C116.86 22.1102 117.116 21.1502 117.628 20.3022C118.14 19.4382 118.836 18.7662 119.716 18.2862C120.612 17.8062 121.604 17.5662 122.692 17.5662C124.356 17.5662 125.772 18.2222 126.94 19.5342L119.404 26.9742C119.932 27.4062 120.444 27.7262 120.94 27.9342C121.436 28.1262 121.996 28.2222 122.62 28.2222ZM117.628 23.1102C117.628 24.4382 118.068 25.5742 118.948 26.5182L125.98 19.5342C125.452 19.0702 124.94 18.7422 124.444 18.5502C123.948 18.3422 123.356 18.2382 122.668 18.2382C121.692 18.2382 120.82 18.4542 120.052 18.8862C119.3 19.3022 118.708 19.8782 118.276 20.6142C117.844 21.3502 117.628 22.1822 117.628 23.1102Z" fill="black"/>
<mask id="mask0_623_5319" style="mask-type:alpha" maskUnits="userSpaceOnUse" x="127" y="0" width="21" height="22">
<path d="M147 1.94861L128.877 1.94861L128.877 20.0719L147 20.0719L147 1.94861Z" fill="#D9D9D9" stroke="#3BB3BD" stroke-width="2" stroke-linecap="round" stroke-linejoin="bevel"/>
</mask>
<g mask="url(#mask0_623_5319)">
<path d="M128.8 37.6621C138.473 37.6621 146.314 29.8208 146.314 20.148C146.314 10.4752 138.473 2.63391 128.8 2.63391C119.127 2.63391 111.286 10.4752 111.286 20.148C111.286 29.8208 119.127 37.6621 128.8 37.6621Z" stroke="#3BB3BD" stroke-width="2" stroke-linecap="round" stroke-linejoin="bevel"/>
<path d="M128.8 32.8684C135.825 32.8684 141.521 27.1732 141.521 20.1478C141.521 13.1225 135.825 7.42734 128.8 7.42734C121.775 7.42734 116.08 13.1225 116.08 20.1478C116.08 27.1732 121.775 32.8684 128.8 32.8684Z" stroke="#669CA0" stroke-width="2" stroke-linecap="round" stroke-linejoin="bevel"/>
<path d="M128.8 28.0749C133.178 28.0749 136.727 24.5259 136.727 20.148C136.727 15.7701 133.178 12.2211 128.8 12.2211C124.423 12.2211 120.874 15.7701 120.874 20.148C120.874 24.5259 124.423 28.0749 128.8 28.0749Z" stroke="#506E70" stroke-width="2" stroke-linecap="round" stroke-linejoin="bevel"/>
</g>
</svg>
