<svg width="148" height="40" viewBox="0 0 148 40" fill="none" xmlns="http://www.w3.org/2000/svg">
<path d="M6.164 28.8702C4.164 28.8702 2.612 28.0462 1.508 26.3982V25.1022C1.94 26.0622 2.564 26.8142 3.38 27.3582C4.212 27.9022 5.204 28.1742 6.356 28.1742C7.156 28.1742 7.892 27.9982 8.564 27.6462C9.252 27.2942 9.796 26.7982 10.196 26.1582C10.596 25.5182 10.796 24.7822 10.796 23.9502C10.796 23.1982 10.668 22.5502 10.412 22.0062C10.156 21.4622 9.732 20.9422 9.14 20.4462C8.548 19.9342 7.692 19.3342 6.572 18.6462L5.804 18.1662C5.1 17.7342 4.532 17.3502 4.1 17.0142C3.668 16.6782 3.292 16.2862 2.972 15.8382C2.556 15.2142 2.348 14.4942 2.348 13.6782C2.348 12.5902 2.7 11.7422 3.404 11.1342C4.108 10.5262 5.004 10.2222 6.092 10.2222C7.564 10.2222 8.732 10.7662 9.596 11.8542V13.0782C9.228 12.4062 8.724 11.8782 8.084 11.4942C7.444 11.1102 6.74 10.9182 5.972 10.9182C5.172 10.9182 4.5 11.1662 3.956 11.6622C3.412 12.1582 3.14 12.8222 3.14 13.6542C3.14 14.4702 3.388 15.1742 3.884 15.7662C4.396 16.3422 5.252 16.9742 6.452 17.6622C7.924 18.5262 9.068 19.3102 9.884 20.0142C10.46 20.5422 10.876 21.1262 11.132 21.7662C11.404 22.4062 11.54 23.1182 11.54 23.9022C11.54 24.8942 11.308 25.7662 10.844 26.5182C10.38 27.2702 9.74 27.8542 8.924 28.2702C8.108 28.6702 7.188 28.8702 6.164 28.8702ZM14.0589 17.7342H14.8269V20.3742C15.2589 19.5102 15.9309 18.8142 16.8429 18.2862C17.7549 17.7422 18.7149 17.4702 19.7229 17.4702C20.7629 17.4702 21.7149 17.7262 22.5789 18.2382C23.4589 18.7502 24.1549 19.4382 24.6669 20.3022C25.1789 21.1662 25.4349 22.1102 25.4349 23.1342C25.4349 24.1582 25.1789 25.1022 24.6669 25.9662C24.1549 26.8302 23.4589 27.5182 22.5789 28.0302C21.7149 28.5422 20.7629 28.7982 19.7229 28.7982C18.7469 28.7982 17.8029 28.5342 16.8909 28.0062C15.9949 27.4782 15.3069 26.7822 14.8269 25.9182V33.3342H14.0589V17.7342ZM19.7709 28.1262C20.6509 28.1262 21.4669 27.9022 22.2189 27.4542C22.9709 26.9902 23.5629 26.3822 23.9949 25.6302C24.4429 24.8622 24.6669 24.0302 24.6669 23.1342C24.6669 22.2542 24.4429 21.4302 23.9949 20.6622C23.5469 19.8942 22.9469 19.2862 22.1949 18.8382C21.4429 18.3742 20.6269 18.1422 19.7469 18.1422C18.8669 18.1422 18.0429 18.3742 17.2749 18.8382C16.5229 19.3022 15.9149 19.9182 15.4509 20.6862C15.0029 21.4542 14.7789 22.2782 14.7789 23.1582C14.7789 24.0382 15.0029 24.8622 15.4509 25.6302C15.9149 26.3822 16.5309 26.9902 17.2989 27.4542C18.0669 27.9022 18.8909 28.1262 19.7709 28.1262ZM32.9281 28.7982C31.9041 28.7982 30.9521 28.5422 30.0721 28.0302C29.1921 27.5182 28.4961 26.8302 27.9841 25.9662C27.4721 25.0862 27.2161 24.1422 27.2161 23.1342C27.2161 22.1262 27.4721 21.1902 27.9841 20.3262C28.4961 19.4462 29.1921 18.7502 30.0721 18.2382C30.9521 17.7262 31.9041 17.4702 32.9281 17.4702C33.9681 17.4702 34.9521 17.7502 35.8801 18.3102C36.8081 18.8542 37.4561 19.5662 37.8241 20.4462V17.7342H38.5921V28.5342H37.8241V25.8462C37.3921 26.7422 36.7201 27.4622 35.8081 28.0062C34.9121 28.5342 33.9521 28.7982 32.9281 28.7982ZM32.9761 28.1262C33.8561 28.1262 34.6721 27.9022 35.4241 27.4542C36.1761 26.9902 36.7681 26.3822 37.2001 25.6302C37.6481 24.8622 37.8721 24.0302 37.8721 23.1342C37.8721 22.2542 37.6481 21.4302 37.2001 20.6622C36.7521 19.8942 36.1521 19.2862 35.4001 18.8382C34.6481 18.3742 33.8321 18.1422 32.9521 18.1422C32.0721 18.1422 31.2481 18.3742 30.4801 18.8382C29.7281 19.3022 29.1201 19.9182 28.6561 20.6862C28.2081 21.4542 27.9841 22.2782 27.9841 23.1582C27.9841 24.0382 28.2081 24.8622 28.6561 25.6302C29.1201 26.3822 29.7361 26.9902 30.5041 27.4542C31.2721 27.9022 32.0961 28.1262 32.9761 28.1262ZM45.4854 28.6782C44.3014 28.6782 43.3174 28.3182 42.5334 27.5982C41.7654 26.8782 41.3814 25.8862 41.3814 24.6222V13.3902H42.1494V17.7342H45.4614V18.4062H42.1494V24.6222C42.1494 25.6782 42.4614 26.5102 43.0854 27.1182C43.7254 27.7102 44.5254 28.0062 45.4854 28.0062V28.6782ZM48.4402 15.2622C48.2162 15.2622 48.0162 15.1822 47.8402 15.0222C47.6802 14.8622 47.6002 14.6622 47.6002 14.4222C47.6002 14.1982 47.6802 14.0062 47.8402 13.8462C48.0162 13.6862 48.2162 13.6062 48.4402 13.6062C48.6642 13.6062 48.8562 13.6862 49.0162 13.8462C49.1922 14.0062 49.2802 14.1982 49.2802 14.4222C49.2802 14.6622 49.1922 14.8622 49.0162 15.0222C48.8562 15.1822 48.6642 15.2622 48.4402 15.2622ZM48.0562 17.7342H48.8242V28.5342H48.0562V17.7342ZM57.4906 28.7982C56.4666 28.7982 55.5146 28.5422 54.6346 28.0302C53.7546 27.5182 53.0586 26.8302 52.5466 25.9662C52.0346 25.0862 51.7786 24.1422 51.7786 23.1342C51.7786 22.1262 52.0346 21.1902 52.5466 20.3262C53.0586 19.4462 53.7546 18.7502 54.6346 18.2382C55.5146 17.7262 56.4666 17.4702 57.4906 17.4702C58.5306 17.4702 59.5146 17.7502 60.4426 18.3102C61.3706 18.8542 62.0186 19.5662 62.3866 20.4462V17.7342H63.1546V28.5342H62.3866V25.8462C61.9546 26.7422 61.2826 27.4622 60.3706 28.0062C59.4746 28.5342 58.5146 28.7982 57.4906 28.7982ZM57.5386 28.1262C58.4186 28.1262 59.2346 27.9022 59.9866 27.4542C60.7386 26.9902 61.3306 26.3822 61.7626 25.6302C62.2106 24.8622 62.4346 24.0302 62.4346 23.1342C62.4346 22.2542 62.2106 21.4302 61.7626 20.6622C61.3146 19.8942 60.7146 19.2862 59.9626 18.8382C59.2106 18.3742 58.3946 18.1422 57.5146 18.1422C56.6346 18.1422 55.8106 18.3742 55.0426 18.8382C54.2906 19.3022 53.6826 19.9182 53.2186 20.6862C52.7706 21.4542 52.5466 22.2782 52.5466 23.1582C52.5466 24.0382 52.7706 24.8622 53.2186 25.6302C53.6826 26.3822 54.2986 26.9902 55.0666 27.4542C55.8346 27.9022 56.6586 28.1262 57.5386 28.1262ZM70.2879 28.7502C69.5359 28.7502 68.8479 28.5822 68.2239 28.2462C67.5999 27.8942 67.1039 27.4062 66.7359 26.7822C66.3679 26.1582 66.1839 25.4622 66.1839 24.6942V10.5342H66.9519V24.6942C66.9519 25.3342 67.0959 25.9102 67.3839 26.4222C67.6879 26.9342 68.0959 27.3422 68.6079 27.6462C69.1199 27.9342 69.6799 28.0782 70.2879 28.0782V28.7502ZM76.9218 28.8702C74.9218 28.8702 73.3698 28.0462 72.2658 26.3982V25.1022C72.6978 26.0622 73.3218 26.8142 74.1378 27.3582C74.9698 27.9022 75.9618 28.1742 77.1138 28.1742C77.9138 28.1742 78.6498 27.9982 79.3218 27.6462C80.0098 27.2942 80.5538 26.7982 80.9538 26.1582C81.3538 25.5182 81.5538 24.7822 81.5538 23.9502C81.5538 23.1982 81.4258 22.5502 81.1698 22.0062C80.9138 21.4622 80.4898 20.9422 79.8978 20.4462C79.3058 19.9342 78.4498 19.3342 77.3298 18.6462L76.5618 18.1662C75.8578 17.7342 75.2898 17.3502 74.8578 17.0142C74.4258 16.6782 74.0498 16.2862 73.7298 15.8382C73.3138 15.2142 73.1058 14.4942 73.1058 13.6782C73.1058 12.5902 73.4578 11.7422 74.1618 11.1342C74.8658 10.5262 75.7618 10.2222 76.8498 10.2222C78.3218 10.2222 79.4898 10.7662 80.3538 11.8542V13.0782C79.9858 12.4062 79.4818 11.8782 78.8418 11.4942C78.2018 11.1102 77.4978 10.9182 76.7298 10.9182C75.9298 10.9182 75.2578 11.1662 74.7138 11.6622C74.1698 12.1582 73.8978 12.8222 73.8978 13.6542C73.8978 14.4702 74.1458 15.1742 74.6418 15.7662C75.1538 16.3422 76.0098 16.9742 77.2098 17.6622C78.6818 18.5262 79.8258 19.3102 80.6418 20.0142C81.2178 20.5422 81.6338 21.1262 81.8898 21.7662C82.1618 22.4062 82.2978 23.1182 82.2978 23.9022C82.2978 24.8942 82.0658 25.7662 81.6018 26.5182C81.1378 27.2702 80.4978 27.8542 79.6818 28.2702C78.8658 28.6702 77.9458 28.8702 76.9218 28.8702ZM90.0727 28.1502C90.9047 28.1502 91.6967 27.9342 92.4487 27.5022C93.2007 27.0702 93.8247 26.4782 94.3207 25.7262V26.9502C93.7287 27.6062 93.0807 28.0862 92.3767 28.3902C91.6727 28.6782 90.8727 28.8222 89.9767 28.8222C88.9847 28.8222 88.0487 28.5582 87.1687 28.0302C86.3047 27.5022 85.6087 26.7982 85.0807 25.9182C84.5687 25.0382 84.3127 24.1022 84.3127 23.1102C84.3127 22.0382 84.5687 21.0782 85.0807 20.2302C85.5927 19.3662 86.2887 18.6942 87.1687 18.2142C88.0647 17.7342 89.0567 17.4942 90.1447 17.4942C91.8087 17.4942 93.2247 18.1502 94.3927 19.4622L86.8567 26.9022C87.3847 27.3342 87.8967 27.6542 88.3927 27.8622C88.8887 28.0542 89.4487 28.1502 90.0727 28.1502ZM85.0807 23.0382C85.0807 24.3662 85.5207 25.5022 86.4007 26.4462L93.4327 19.4622C92.9047 18.9982 92.3927 18.6702 91.8967 18.4782C91.4007 18.2702 90.8087 18.1662 90.1207 18.1662C89.1447 18.1662 88.2727 18.3822 87.5047 18.8142C86.7527 19.2302 86.1607 19.8062 85.7287 20.5422C85.2967 21.2782 85.0807 22.1102 85.0807 23.0382ZM96.7933 17.7342H97.5613V20.1342C97.9133 19.3342 98.5133 18.6942 99.3613 18.2142C100.209 17.7182 101.145 17.4702 102.169 17.4702C103.497 17.4702 104.545 17.8942 105.313 18.7422C106.097 19.5742 106.489 20.7422 106.489 22.2462V28.5342H105.721V22.2462C105.721 20.9502 105.401 19.9422 104.761 19.2222C104.137 18.5022 103.257 18.1422 102.121 18.1422C101.289 18.1422 100.521 18.3342 99.8173 18.7182C99.1293 19.0862 98.5773 19.5982 98.1613 20.2542C97.7613 20.9102 97.5613 21.6542 97.5613 22.4862V28.5342H96.7933V17.7342ZM112.136 28.7982C111.368 28.7982 110.688 28.6702 110.096 28.4142C109.504 28.1422 109.08 27.7982 108.824 27.3822V26.1102C109.128 26.7982 109.544 27.3102 110.072 27.6462C110.6 27.9662 111.272 28.1262 112.088 28.1262C112.872 28.1262 113.504 27.8862 113.984 27.4062C114.464 26.9102 114.704 26.2782 114.704 25.5102C114.704 24.8542 114.568 24.3502 114.296 23.9982C114.024 23.6302 113.584 23.2622 112.976 22.8942L112.064 22.3662C111.408 21.9662 110.912 21.6542 110.576 21.4302C110.256 21.1902 110 20.9262 109.808 20.6382C109.616 20.3342 109.52 19.9822 109.52 19.5822C109.52 18.9422 109.744 18.4302 110.192 18.0462C110.64 17.6622 111.224 17.4702 111.944 17.4702C112.824 17.4702 113.56 17.6702 114.152 18.0702V19.1262C113.656 18.4702 112.944 18.1422 112.016 18.1422C111.504 18.1422 111.088 18.2702 110.768 18.5262C110.448 18.7822 110.288 19.1102 110.288 19.5102C110.288 19.8622 110.384 20.1742 110.576 20.4462C110.768 20.7022 111.032 20.9422 111.368 21.1662C111.72 21.3902 112.296 21.7262 113.096 22.1742C113.912 22.6382 114.512 23.1182 114.896 23.6142C115.28 24.0942 115.472 24.7262 115.472 25.5102C115.472 26.5022 115.144 27.3022 114.488 27.9102C113.848 28.5022 113.064 28.7982 112.136 28.7982ZM123.12 28.1502C123.952 28.1502 124.744 27.9342 125.496 27.5022C126.248 27.0702 126.872 26.4782 127.368 25.7262V26.9502C126.776 27.6062 126.128 28.0862 125.424 28.3902C124.72 28.6782 123.92 28.8222 123.024 28.8222C122.032 28.8222 121.096 28.5582 120.216 28.0302C119.352 27.5022 118.656 26.7982 118.128 25.9182C117.616 25.0382 117.36 24.1022 117.36 23.1102C117.36 22.0382 117.616 21.0782 118.128 20.2302C118.64 19.3662 119.336 18.6942 120.216 18.2142C121.112 17.7342 122.104 17.4942 123.192 17.4942C124.856 17.4942 126.272 18.1502 127.44 19.4622L119.904 26.9022C120.432 27.3342 120.944 27.6542 121.44 27.8622C121.936 28.0542 122.496 28.1502 123.12 28.1502ZM118.128 23.0382C118.128 24.3662 118.568 25.5022 119.448 26.4462L126.48 19.4622C125.952 18.9982 125.44 18.6702 124.944 18.4782C124.448 18.2702 123.856 18.1662 123.168 18.1662C122.192 18.1662 121.32 18.3822 120.552 18.8142C119.8 19.2302 119.208 19.8062 118.776 20.5422C118.344 21.2782 118.128 22.1102 118.128 23.0382Z" fill="white"/>
<mask id="mask0_669_38" style="mask-type:alpha" maskUnits="userSpaceOnUse" x="128" y="0" width="21" height="21">
<path d="M147.5 1.87665L129.377 1.87665L129.377 19.9999L147.5 19.9999L147.5 1.87665Z" fill="#D9D9D9" stroke="#3BB3BD" stroke-width="2" stroke-linecap="round" stroke-linejoin="bevel"/>
</mask>
<g mask="url(#mask0_669_38)">
<path d="M129.301 37.5902C138.973 37.5902 146.815 29.7489 146.815 20.0761C146.815 10.4033 138.973 2.56201 129.301 2.56201C119.628 2.56201 111.786 10.4033 111.786 20.0761C111.786 29.7489 119.628 37.5902 129.301 37.5902Z" stroke="#3BB3BD" stroke-width="2" stroke-linecap="round" stroke-linejoin="bevel"/>
<path d="M129.3 32.7964C136.326 32.7964 142.021 27.1013 142.021 20.0759C142.021 13.0506 136.326 7.35541 129.3 7.35541C122.275 7.35541 116.58 13.0506 116.58 20.0759C116.58 27.1013 122.275 32.7964 129.3 32.7964Z" stroke="#669CA0" stroke-width="2" stroke-linecap="round" stroke-linejoin="bevel"/>
<path d="M129.301 28.003C133.678 28.003 137.227 24.454 137.227 20.0761C137.227 15.6982 133.678 12.1492 129.301 12.1492C124.923 12.1492 121.374 15.6982 121.374 20.0761C121.374 24.454 124.923 28.003 129.301 28.003Z" stroke="#506E70" stroke-width="2" stroke-linecap="round" stroke-linejoin="bevel"/>
</g>
</svg>
